<?xml version="1.0" standalone="no"?>
<svg xmlns="http://www.w3.org/2000/svg" viewBox="0 0 110.664 36" width="110.664" height="36"><g fill="#ff5576" color="#ff5576" transform="translate(0 4) scale(0.5833334)"><svg width="48.0" height="48.0" x="0.0" y="0.0" viewBox="0 0 48 48"><path fill="currentColor" fill-rule="evenodd" d="M21.088 35.003c-.108 0-.27 0-.432-.054-1.294-.27-1.294-1.403-1.348-2.212-.054-.862-.108-1.186-.54-1.887-.215-.324.054-.647.378-.647.054 0 .108 0 .216.054 1.402.7 3.344 1.887 3.29 3.182 0 .054-.216 1.564-1.564 1.564m-2.643-14.994c-.054.162-.162.27-.378.378a1.787 1.787 0 0 1-1.294 0c-.593-.27-1.133-.701-1.564-1.079-.701-.593-1.348-1.132-2.157-.97-.54.053-.971.377-1.349.97-.161.27-.27.594-.161.917.215.755 1.024 1.187 2.319 1.888 2.21 1.186 4.045 2.265 4.045 3.883v.431c0 .108-.054.162-.054.27 0 .054-.054.108-.054.162 0 .054-.054.108-.054.162-.054.107-.108.161-.216.27l-.162.161c-.431.324-1.024.485-1.564.485-.755 0-1.726-.323-1.887-1.294-.27-1.402-2.535-3.074-4.53-3.236-.972-.108-1.834.162-2.428.755l-.215.27c-.054.054-.108.162-.162.216-.054.107-.108.161-.162.27 0 .053-.054.053-.054.107-.054.054-.054.108-.108.216-.054 0-.054.054-.054.108-.054.054-.054.162-.054.215-.27 1.187 1.24 2.104 3.236 3.344 3.29 1.996 5.879 3.83 4.908 6.095-.216.485-.647.97-1.186 1.294a3.536 3.536 0 0 1-1.78.485c-1.24 0-2.265-.755-2.859-2.103-.593-1.348-1.294-2.05-2.103-2.05-.593 0-1.133.324-1.51.971-.162.378-.324.81-.324 1.295-1.833-3.236-2.912-7.011-2.912-10.949C1.618 11.596 11.649 1.564 24 1.564c1.672 0 3.344.162 4.962.54.593.162.809.54.917.863.161.539 0 1.186-.432 1.564-.377.377-.97.431-1.672.215-1.456-.431-2.912-.215-3.775.648-.593.593-.809 1.402-.54 2.157.216.647.918 1.726 3.29 2.157 1.834.324 3.183.216 4.854.108a54.109 54.109 0 0 1 3.29-.108c3.128 0 4.854 1.564 5.394 2.859.377.917.27 1.78-.324 2.373-1.186 1.186-4.207-.216-5.609-1.025-.162-.108-.27-.162-.431-.27-.378-.215-.863-.108-1.08.27-.215.378-.107.863.217 1.079.054.054.215.161.431.27 1.834 1.186 2.859 2.804 2.859 4.476 0 1.402-.755 2.642-2.05 3.451-1.025.594-1.941.648-2.643.054-.7-.593-.97-1.672-.593-2.696.378-1.133.216-2.212-.485-3.02-1.133-1.295-3.506-1.78-6.04-1.295-.162.054-.324.054-.432.108-.917.27-2.697.97-4.045 2.157-.485-1.618-2.157-2.642-3.506-3.397-.809-.486-1.887-1.133-1.887-1.51 0-.486.593-1.241 1.24-1.403.593-.162 1.133.216 1.618 1.025.755 1.348 2.157 2.265 3.398 2.157 1.025-.054 1.887-.647 2.373-1.726.377-.809.377-1.833.054-2.696-.27-.701-.917-1.618-2.427-2.212a.797.797 0 0 0-1.025.432.797.797 0 0 0 .432 1.025c.809.323 1.294.755 1.51 1.294.215.54.108 1.079 0 1.402-.216.54-.54.81-.971.81-.647.053-1.51-.54-1.942-1.349-1.186-2.103-2.804-1.942-3.397-1.78-1.349.324-2.481 1.672-2.481 2.966 0 1.295 1.294 2.05 2.642 2.859 1.996 1.186 3.236 2.05 2.75 3.613M23.947 0c1.834 0 3.614.216 5.34.594 1.078.215 1.833.97 2.103 1.995.27 1.079-.054 2.32-.863 3.128-.486.432-1.564 1.133-3.29.594-1.079-.324-1.834-.054-2.157.27-.108.107-.216.323-.162.539.108.377.701.862 2.05 1.078 1.671.27 2.912.216 4.476.108.97-.054 2.05-.108 3.397-.108 3.938 0 6.149 2.05 6.904 3.83.647 1.51.377 3.074-.647 4.098-1.025 1.025-2.481 1.079-3.884.755.54.917.81 1.888.81 2.913 0 1.995-1.025 3.775-2.859 4.854-1.564.97-3.236.97-4.476-.054-1.24-1.025-1.672-2.859-1.079-4.477.216-.593.108-1.078-.216-1.456-.72-.824-2.424-1.107-4.22-.802l-.256.047h-.054c-.054.054-.162.054-.216.108-1.186.54-2.48 3.236-2.373 6.256 0 1.672.432 5.77 4.369 7.227 1.78.701 3.505 1.025 5.123 1.025 2.75 0 5.07-.971 7.12-2.427 1.132-.755 2.21-1.726 3.235-2.697 2.178-2.333 3.708-4.966 4.014-6.891l.031-.228v-.054c0-.054.054-.108.054-.162 0 0 .03-.03.046-.068l.008-.04.108-.107.023-.023.085-.085s.054-.054.108-.054c.036 0 .072-.024.108-.04l.054-.014h.323c.054 0 .108.054.162.054 0 0 .03.03.068.045l.04.009.216.215s.053.054.053.108c0 .036.024.072.04.108l.014.054v.054c.216 1.348.324 2.157.324 3.667 0 12.868-10.202 23.41-23.07 23.881l-.39.012h-1.834c-1.618-.054-3.236-.27-4.746-.702-.122 0-.243-.03-.364-.068l-.122-.04h-.054c-.054 0-.108-.053-.162-.053C7.281 44.063 0 34.84 0 23.946 0 10.733 10.787-.054 23.946 0zm16.611 18.23c.378 0 .701.108 1.079.323 1.618 1.079 2.373 2.265 2.157 3.506 0 .108-.054.162-.054.216-.323.917-1.132 1.833-2.373 1.833-.27 0-.593-.054-.863-.161a2.387 2.387 0 0 1-1.51-1.618 3.42 3.42 0 0 1-.073-1.096l.02-.145v-.216c-.055 0-.055 0-.055-.054-.27-.539-.215-1.186.108-1.725.378-.54.917-.863 1.564-.863zm0 1.672c-.161 0-.27.161-.215.323.215.378.215.54.16 1.025-.053.431-.106 1.025.54 1.24a.687.687 0 0 0 .324.054c.594 0 .81-.7.81-.647.107-.701-.864-1.456-1.51-1.941 0-.054-.055-.054-.109-.054zM35.542 2.319c.754.108 3.073.378 3.667 2.104 0 .054.054.162.054.215.054.216.161 1.133-.432 1.942-.377.54-1.025.863-1.726.97h-.323c-.7 0-1.348-.269-1.834-.808-.323-.324-.485-.701-.593-.97v-.055c0-.054-.054-.108-.054-.108l-.054-.054c-.593-.431-.862-1.24-.647-1.995.216-.755.917-1.24 1.726-1.24zm-.162 1.564c-.216 0-.324.27-.216.378.378.27.485.431.648.809.161.377.376.863.97.863h.162c.868-.097.83-.84.812-.996l-.003-.029c-.216-.647-1.51-.917-2.373-1.025z"></path></svg></g><path fill="#ffffff" fill-rule="nonzero" d="M12.38 14.02L12.38 14.02Q12.38 16.39 11.10 17.66Q9.82 18.94 7.51 18.94L7.51 18.94L5.21 18.94Q2.38 18.94 1.19 17.95Q0 16.97 0 14.54L0 14.54L0 1.85L7.22 1.85Q9.67 1.85 10.91 3.07Q12.14 4.30 12.14 6.53L12.14 6.53Q12.14 7.82 11.48 8.74Q10.82 9.65 10.03 10.03L10.03 10.03Q12.38 11.14 12.38 14.02ZM3.34 8.52L6.96 8.52Q8.81 8.52 8.81 6.67Q8.81 4.82 6.96 4.82L6.96 4.82L3.34 4.82L3.34 8.52ZM9.05 13.85L9.05 13.85Q9.05 12.70 8.64 12.11Q8.23 11.52 7.18 11.52L7.18 11.52L3.34 11.52L3.34 14.21Q3.34 15.19 3.83 15.58Q4.32 15.96 5.45 15.96L5.45 15.96L7.18 15.96Q9.05 15.96 9.05 13.85ZM22.97 12.74L22.97 12.74L22.97 11.50Q22.97 9.72 22.45 8.78Q21.94 7.85 20.30 7.85L20.30 7.85Q17.66 7.85 17.66 11.40L17.66 11.40L17.66 12.65Q17.66 16.46 20.30 16.46L20.30 16.46Q22.01 16.46 22.54 15.19L22.54 15.19Q22.97 14.18 22.97 12.74ZM26.09 12.02L26.09 12.02Q26.09 16.46 24.41 17.98L24.41 17.98Q22.99 19.27 20.30 19.27L20.30 19.27Q16.87 19.27 15.67 17.26L15.67 17.26Q14.54 15.41 14.54 12.02L14.54 12.02Q14.54 8.86 15.67 7.06L15.67 7.06Q16.92 5.04 20.22 5.04Q23.52 5.04 24.80 6.80Q26.09 8.57 26.09 12.02ZM38.02 5.14L38.02 18.94L35.93 18.94L34.97 17.28L31.63 19.08Q28.85 19.08 27.89 17.06L27.89 17.06Q27.41 16.08 27.23 14.94Q27.05 13.80 27.05 12.56Q27.05 11.33 27.07 10.74Q27.10 10.15 27.19 9.37Q27.29 8.59 27.47 8.06Q27.65 7.54 27.98 6.97Q28.32 6.41 28.80 6.07L28.80 6.07Q29.88 5.33 31.61 5.33L31.61 5.33L34.90 5.33L38.02 5.14ZM32.52 15.79L34.90 14.57L34.90 8.14L32.52 8.14Q31.20 8.14 30.68 9.14Q30.17 10.15 30.17 12.16Q30.17 14.16 30.66 14.98Q31.15 15.79 32.52 15.79L32.52 15.79ZM47.26 16.30L47.26 18.94L45.31 18.94Q43.54 18.94 42.61 17.88Q41.69 16.82 41.69 15.36L41.69 15.36L41.69 8.16L40.37 8.16L40.37 5.78L41.69 5.78L41.69 3.10L44.81 3.10L44.81 5.78L47.02 5.78L47.02 8.16L44.81 8.16L44.81 15.17Q44.81 16.30 45.89 16.30L45.89 16.30L47.26 16.30ZM51.43 0Q52.56 0 52.90 0.35Q53.23 0.70 53.23 1.81Q53.23 2.93 52.88 3.28Q52.54 3.62 51.42 3.62Q50.30 3.62 49.96 3.26Q49.61 2.90 49.61 1.80Q49.61 0.70 49.96 0.35Q50.30 0 51.43 0ZM52.97 5.74L52.97 18.94L49.85 18.94L49.85 5.74L52.97 5.74ZM62.26 5.76L62.26 8.14L59.71 8.14L59.71 18.94L56.59 18.94L56.59 8.14L55.30 8.14L55.30 5.76L56.59 5.76L56.59 4.44Q56.59 2.98 57.53 1.92Q58.46 0.86 60.24 0.86L60.24 0.86L62.26 0.86L62.26 3.50L60.79 3.50Q59.71 3.50 59.71 4.63L59.71 4.63L59.71 5.76L62.26 5.76ZM71.38 5.23L74.66 5.23L69.46 20.47Q69.10 21.50 68.52 22.08L68.52 22.08Q67.56 23.04 65.83 23.04L65.83 23.04L64.37 23.04L64.37 20.23L65.33 20.23Q66 20.23 66.32 20.00Q66.65 19.78 66.89 19.10L66.89 19.10L67.13 18.43L63 5.23L66.29 5.23L68.74 14.76L71.38 5.23Z" transform="translate(36, 8.532)"></path></svg>